<svg width="15" height="22" viewBox="0 0 15 22" fill="none" xmlns="http://www.w3.org/2000/svg">
<g clip-path="url(#clip0_177_7)">
<path d="M4.31805 19.412C3.42493 20.7464 1.62701 20.1621 1.62701 20.1621C1.62701 20.1621 1.2359 17.4757 2.12902 16.1413C3.02215 14.8069 3.83354 15.8273 4.18379 16.3419C4.53403 16.8565 5.21701 18.0688 4.31805 19.412Z" stroke="white" stroke-width="1.5" stroke-linecap="round" stroke-linejoin="round"/>
<path d="M12.4379 4.21864L13.1967 3.07608" stroke="white" stroke-width="1.5" stroke-linecap="round" stroke-linejoin="round"/>
<path d="M6.91576 15.2953L7.015 17.7898C7.02761 17.8696 7.05347 17.9434 7.09018 18.0044C7.1269 18.0654 7.17331 18.1115 7.22514 18.1386C7.27359 18.1648 7.3259 18.1705 7.37639 18.1551C7.42683 18.1397 7.47347 18.1038 7.51118 18.0514L9.44919 15.6355C9.59571 15.4085 9.69553 15.1236 9.73692 14.8144C9.77831 14.5052 9.75951 14.1848 9.68269 13.8911L9.43168 12.9492L11.4281 11.1437C11.7652 10.8327 12.0453 10.4012 12.243 9.88806C12.4407 9.37496 12.5498 8.79637 12.5605 8.20451L12.4613 4.21864L9.7936 4.07037C9.39952 4.08251 9.01343 4.23919 8.66937 4.52664C8.32532 4.81409 8.03386 5.22348 7.82056 5.71879L6.47796 9.04178L5.83584 8.70165C5.63971 8.58685 5.42575 8.55787 5.21901 8.61811C5.01225 8.67835 4.82126 8.82531 4.66836 9.04178L3.20318 11.5711C3.16575 11.6271 3.14024 11.6984 3.12985 11.776C3.11946 11.8536 3.12466 11.934 3.1448 12.0072C3.1637 12.0825 3.19413 12.1501 3.23367 12.2047C3.2732 12.2592 3.32074 12.299 3.37246 12.3212L5.18789 12.7137L6.91576 15.2953Z" stroke="white" stroke-width="1.5" stroke-linecap="round" stroke-linejoin="round"/>
<path d="M9.79361 8.49663C9.67272 8.49663 9.57471 8.3502 9.57471 8.16957C9.57471 7.98894 9.67272 7.8425 9.79361 7.8425" stroke="white" stroke-width="1.5"/>
<path d="M9.79358 8.49663C9.91447 8.49663 10.0125 8.3502 10.0125 8.16957C10.0125 7.98894 9.91447 7.8425 9.79358 7.8425" stroke="white" stroke-width="1.5"/>
<path d="M14.0958 14.9552H13.0742C12.9297 14.9769 12.7958 15.0782 12.6987 15.2395C12.6016 15.4008 12.5482 15.6104 12.5489 15.8274C12.5441 15.9967 12.5726 16.1644 12.6306 16.31C12.6887 16.4556 12.7738 16.5728 12.8757 16.6472L13.909 17.1792C14.012 17.2524 14.0984 17.369 14.1575 17.5148C14.2167 17.6604 14.2459 17.8288 14.2417 17.9991C14.2425 18.2161 14.189 18.4257 14.0919 18.5869C13.9947 18.7482 13.8608 18.8495 13.7163 18.8713H12.4905" stroke="white" stroke-width="1.5" stroke-linecap="round" stroke-linejoin="round"/>
<path d="M13.3661 14.9552V14.083" stroke="white" stroke-width="1.5" stroke-linecap="round" stroke-linejoin="round"/>
<path d="M13.3661 19.7522V18.88" stroke="white" stroke-width="1.5" stroke-linecap="round" stroke-linejoin="round"/>
<path d="M3.58258 1.87247H2.56103C2.41347 1.90085 2.27873 2.01235 2.18434 2.18418C2.08995 2.356 2.04304 2.5752 2.05318 2.79698C2.04846 2.96631 2.07687 3.13403 2.13492 3.27963C2.19298 3.42523 2.27817 3.5424 2.38008 3.61683L3.41329 4.14886C3.5152 4.22328 3.60039 4.34046 3.65844 4.48606C3.7165 4.63166 3.7449 4.79937 3.74019 4.96871C3.74106 5.18433 3.68845 5.39278 3.59251 5.55385C3.49657 5.71492 3.36409 5.81717 3.22066 5.84089H1.97729" stroke="white" stroke-width="1.5" stroke-linecap="round" stroke-linejoin="round"/>
<path d="M2.85291 1.87245V1.00027" stroke="white" stroke-width="1.5" stroke-linecap="round" stroke-linejoin="round"/>
<path d="M2.85291 6.66945V5.79727" stroke="white" stroke-width="1.5" stroke-linecap="round" stroke-linejoin="round"/>
</g>
<defs>
<clipPath id="clip0_177_7">
<rect width="14.0098" height="20.9323" fill="white" transform="translate(0.885742 0.18042)"/>
</clipPath>
</defs>
</svg>
