<svg xmlns="http://www.w3.org/2000/svg" width="80" height="50" viewBox="0 0 80 50" fill="none"><path d="M18.0744 47.2837C17.9239 46.6203 18.3166 46.6281 18.7879 46.6314C21.0901 46.648 23.3923 46.638 25.6956 46.6391C25.9224 46.6391 26.1702 46.5651 26.1713 46.9708C26.1724 47.3765 25.939 47.3025 25.7034 47.3025H18.3531C18.2447 47.3014 18.1407 47.287 18.0744 47.2837Z" fill="#474B4D"></path><path d="M22.0437 47.7456C23.2385 47.7456 24.4344 47.7456 25.6292 47.7456C25.804 47.7456 26.0806 47.6461 26.044 47.9966C26.0175 48.252 25.9124 48.4134 25.5949 48.4112C23.1312 48.4001 20.6675 48.4056 18.2037 48.4034C18.0555 48.4034 17.8077 48.4565 17.8851 48.1823C17.9393 47.9944 17.9161 47.7158 18.2934 47.7279C19.2481 47.76 20.205 47.739 21.1609 47.739L22.0437 47.7456Z" fill="#474B4D"></path><path d="M29.2183 0.460885C28.3764 0.792556 27.5588 0.88874 26.7468 0.977186C24.7683 1.20355 22.8258 1.67559 20.9642 2.38236C18.7749 3.18414 16.7031 4.27586 14.8044 5.62831C13.7893 6.355 12.8195 7.14289 11.9003 7.98759C10.1073 9.66653 8.55859 11.5883 7.29927 13.6967C6.00491 15.8261 5.11323 18.1091 4.48597 20.507C3.87371 22.907 3.65625 25.3905 3.8421 27.8602C4.02043 30.5309 4.63635 33.1543 5.66527 35.6257C6.55031 37.7506 7.6035 39.7738 8.99522 41.6201C10.0019 42.9578 11.2078 44.08 12.5276 45.0905C13.8961 46.1418 15.2934 47.1468 16.6829 48.1772C16.8423 48.31 16.9948 48.451 17.1398 48.5995C16.6419 48.7101 16.2868 48.4812 15.9394 48.3784C13.5786 47.693 11.3041 46.8218 9.2895 45.348C7.79047 44.2524 6.54146 42.9269 5.44623 41.4564C4.29699 39.9222 3.28805 38.2879 2.43158 36.5732C1.39703 34.4684 0.678339 32.2229 0.298641 29.9088C0.133803 28.9293 0.0873386 27.9243 0.0275987 26.9238C-0.0235487 25.9091 -0.00358668 24.892 0.0873386 23.8801C0.2578 21.7694 0.711385 19.6911 1.43591 17.7011C2.44598 14.8599 3.93063 12.2102 5.82679 9.86485C8.00938 7.14727 10.7158 4.89532 13.7855 3.24249C16.3786 1.84727 19.1477 1.00814 22.0185 0.427718C23.8528 0.0562476 25.7003 -0.0388312 27.5577 0.0131305C28.0976 0.0275028 28.6806 0.0197639 29.2183 0.460885Z" fill="#DE4C27"></path><path d="M39.552 25.7455C40.0902 24.9895 40.8049 24.3762 41.6341 23.9589C43.0223 23.2547 44.5906 22.985 46.1345 23.185C47.0372 23.2955 47.8481 23.5299 48.5982 24.0175C49.533 24.6244 49.9468 25.583 50.2499 26.5846C50.5331 27.5232 50.542 28.5094 50.6194 29.4812C50.6415 29.7686 50.5497 29.856 50.2543 29.8538C48.6513 29.8394 47.0461 29.8283 45.4453 29.8538C45.0238 29.8615 45.047 29.5763 44.9773 29.3485C44.6908 28.3988 44.069 27.7664 43.0966 27.6515C42.1242 27.5365 41.1971 27.8328 40.3972 28.4021C39.3673 29.1351 38.9259 30.1987 38.771 31.4259C38.625 32.5856 38.407 33.7354 38.2422 34.8918C38.0773 36.0483 37.9357 37.2135 37.782 38.3766C37.6713 39.198 37.5607 40.0195 37.4501 40.8409C37.418 41.0852 37.2609 41.1206 37.0562 41.1206C35.5074 41.1206 33.9586 41.1206 32.4098 41.1206C32.5802 39.8647 32.7417 38.6364 32.9132 37.4114C33.1245 35.951 33.3623 34.4949 33.567 33.0345C33.7683 31.6061 33.9298 30.1733 34.1323 28.7449C34.3746 27.0346 34.6545 25.3309 34.8956 23.6206C35.0992 22.1745 35.264 20.7229 35.4576 19.2746C35.5948 18.2575 35.7596 17.2448 35.8924 16.2276C35.9223 15.9988 36.055 16.0253 36.1977 16.0253C37.6536 16.0253 39.1095 16.0331 40.5643 16.0176C40.863 16.0176 40.9072 16.148 40.8763 16.3813C40.759 17.2381 40.645 18.096 40.52 18.9518C40.3862 19.8771 40.2357 20.8003 40.1041 21.7267C39.9248 23.0092 39.7523 24.2905 39.552 25.7455Z" fill="#DE4C27"></path><path d="M35.6201 5.1964C34.4287 5.08584 32.9706 5.1964 31.539 5.34786C29.6782 5.54576 27.8551 6.03663 26.0795 6.67454C23.1754 7.71267 20.5004 9.14106 18.0998 11.0968C15.3971 13.2947 13.1723 15.8729 11.4863 18.9287C10.1488 21.3377 9.1797 23.9026 8.72391 26.6223C8.40083 28.5167 8.34609 30.4472 8.56128 32.3569C8.73055 33.8328 9.0038 35.2889 9.2328 36.7537C9.25504 36.9003 9.25504 37.0494 9.2328 37.196C9.20625 37.3585 9.36113 37.6249 9.11332 37.6625C8.9153 37.6924 8.87105 37.4171 8.80135 37.2601C8.16191 35.8361 7.82781 34.3182 7.48375 32.8091C7.03329 30.8923 6.84461 28.9235 6.92286 26.9562C7.02022 24.818 7.30785 22.7064 7.90083 20.6379C8.66173 17.9746 9.8579 15.4553 11.441 13.1819C12.0998 12.2448 12.817 11.3501 13.5883 10.5031C15.3418 8.5518 17.3784 6.96531 19.6132 5.6143C21.8258 4.28209 24.1999 3.32578 26.6934 2.64806C28.1355 2.23698 29.61 1.9496 31.1009 1.78904C32.2548 1.67848 33.4142 1.67848 34.5039 2.30865C35.6467 2.972 36.8581 3.51262 37.9135 4.31858C38.1768 4.51979 38.6138 4.72322 38.5087 5.08031C38.4334 5.3357 37.9876 5.1776 37.7099 5.19087C37.0993 5.20635 36.4908 5.1964 35.6201 5.1964Z" fill="#474B4D"></path><path d="M75.1492 32.9452C74.5231 32.9452 73.8958 32.9375 73.2685 32.9452C73.0351 32.9508 72.9256 32.8878 72.9632 32.6379C73.2165 30.9796 73.3327 29.2969 73.5252 27.6275C73.7155 25.9757 73.8936 24.3218 74.0783 22.6701C74.2653 20.9996 74.4866 19.3324 74.6315 17.6564C74.6591 17.3158 74.7786 17.1036 75.2355 17.1157C76.6903 17.1588 78.1473 17.1323 79.6032 17.1312C79.8908 17.1312 80.0734 17.0538 79.9716 17.5535C79.6397 19.2119 79.435 20.8901 79.1562 22.5573C78.8432 24.4368 78.4925 26.3041 78.1727 28.1791C77.9371 29.5611 77.7092 30.9431 77.509 32.3328C77.4459 32.7805 77.3187 33.0027 76.8098 32.953C76.26 32.8999 75.7024 32.9452 75.1492 32.9452Z" fill="#DE4C27"></path><path d="M14.2178 18.615C14.4656 18.0866 14.8539 17.6388 15.2212 17.1988C16.9072 15.1789 18.9594 13.5924 21.2195 12.2613C23.119 11.1467 25.1377 10.2489 27.2378 9.58474C28.9827 9.04224 30.768 8.63892 32.5767 8.37857C34.4408 8.09554 36.306 8.15745 38.1679 8.20057C39.3517 8.2271 40.5398 8.43716 41.7081 8.65827C42.6341 8.83406 43.3775 9.36473 43.9207 10.1618C44.5818 11.0983 45.1908 12.0705 45.745 13.0739C45.8423 13.253 46.0768 13.4598 45.9186 13.6466C45.7604 13.8334 45.5115 13.6079 45.3268 13.5427C44.2835 13.1734 43.2669 12.7234 42.2126 12.394C40.6895 11.9174 39.1278 11.5745 37.5451 11.3691C36.1722 11.1922 34.8015 11.0375 33.4175 11.0529C30.3849 11.0838 27.3787 11.6204 24.5229 12.6405C21.7472 13.6212 19.2127 15.0474 16.843 16.7776C16.0432 17.3613 15.2665 17.9771 14.4811 18.5796C14.4136 18.6338 14.3561 18.7189 14.2178 18.615Z" fill="#DE4C27"></path><path d="M49.5507 33.941C50.2145 33.941 50.8396 33.9543 51.4646 33.9344C51.7578 33.9255 51.8618 34.0228 51.8341 34.3114C51.718 35.5043 51.6007 36.6972 51.5022 37.8923C51.4779 38.1908 51.2954 38.14 51.1206 38.14C50.5309 38.14 49.9413 38.1576 49.3505 38.14C49.0297 38.1267 48.8814 38.2505 48.8394 38.5545C48.7288 39.3284 48.6049 40.0924 48.5141 40.8641C48.4876 41.0852 48.398 41.1338 48.2033 41.1327C46.7485 41.1327 45.2926 41.1239 43.8378 41.1327C43.5347 41.1327 43.4971 40.978 43.5314 40.7557C43.621 40.1665 43.7062 39.5761 43.8268 38.9935C43.9606 38.3467 43.9042 38.2538 43.2615 38.2538H42.2116C41.5047 38.2538 41.4836 38.2538 41.5423 37.5828C41.6341 36.517 41.7768 35.4545 41.8565 34.3877C41.8808 34.0615 42.0224 34.046 42.2691 34.0505C42.84 34.0593 43.4141 34.0173 43.9817 34.0648C44.4397 34.1035 44.5813 33.8946 44.6366 33.5021C44.7362 32.7857 44.8744 32.0759 44.9563 31.3584C44.9851 31.0997 45.0868 31.0654 45.3004 31.0654C46.7385 31.071 48.1767 31.0798 49.6149 31.0654C50.0132 31.0654 49.9778 31.2998 49.9468 31.5298C49.8284 32.307 49.6901 33.0908 49.5507 33.941Z" fill="#474B4D"></path><path d="M71.1919 38.6834C71.1919 36.3274 72.4255 35.1599 74.8958 35.1455C76.2643 35.1389 77.7589 36.2069 77.6306 38.303C77.5199 40.1438 76.2344 41.6131 74.1148 41.5722C72.4819 41.5446 70.9851 40.3528 71.1919 38.6834Z" fill="#DE4C27"></path><path d="M32.8711 23.6464C31.507 23.6663 30.1429 23.6552 28.7778 23.653C28.551 23.653 28.3873 23.6287 28.3574 23.9747C28.2976 24.6679 28.1472 25.3534 28.0189 26.1372C27.7179 25.4949 27.4137 24.9952 26.9634 24.6281C25.0142 23.0416 22.7595 22.7763 20.4286 23.3888C17.8929 24.0521 16.0753 25.6939 14.8694 28.0156C14.1061 29.4838 13.7001 31.0327 13.5264 32.6844C13.376 34.0695 13.5035 35.4707 13.9014 36.8059C14.4767 38.7462 15.6571 40.2332 17.5422 41.0624C18.6563 41.5533 19.8301 41.6837 21.0614 41.5842C22.4818 41.4737 23.7618 41.0823 24.9245 40.252C25.3671 39.9325 25.6647 39.4549 26.2698 39.0801C25.9777 39.6329 26.1094 40.1127 25.9623 40.5682C25.8682 40.8623 25.8682 41.1564 26.386 41.1365C27.583 41.0922 28.7822 41.1221 29.9814 41.1221C30.8465 41.1221 30.8432 41.1221 30.9251 40.2664C30.955 39.9435 31.0092 39.6218 31.0556 39.3012C31.2315 38.1083 31.413 36.9154 31.5844 35.7225C31.7106 34.848 31.8245 33.9724 31.9484 33.0979C32.1195 31.8862 32.2936 30.6741 32.4706 29.4617C32.6022 28.5529 32.7361 27.6441 32.8655 26.7353C32.9939 25.8442 33.1178 24.952 33.2461 24.0599C33.2892 23.7691 33.2074 23.6419 32.8711 23.6464ZM25.7034 35.6396C24.2951 37.0857 21.9962 37.7324 20.0812 36.5771C19.2968 36.1039 18.8267 35.3366 18.6485 34.4312C18.3167 32.7375 18.6707 31.1642 19.6442 29.7624C21.0359 27.7591 23.5439 27.0117 25.6536 28.104C26.6681 28.6281 27.1582 29.5667 27.2688 30.6944C27.2931 30.9498 27.2688 31.2096 27.2688 31.518C27.3628 33.089 26.8075 34.5064 25.7034 35.6396Z" fill="#DE4C27"></path><path d="M66.248 23.6522C66.0621 23.6522 65.9902 23.7086 65.9891 23.9032C65.9891 24.6218 65.7181 25.3084 65.7679 26.0391C65.7166 26.036 65.6676 26.0168 65.6279 25.9842C65.5882 25.9517 65.5598 25.9075 65.5466 25.8578C65.257 25.2443 64.8101 24.7182 64.2511 24.3333C62.5674 23.137 60.6402 22.8496 58.6809 23.2443C55.3997 23.9076 53.301 26.0137 52.0432 29.0507C51.615 30.0877 51.3882 31.1635 51.2157 32.2646C51.146 32.7068 51.1902 32.7842 51.6228 32.6648C52.3563 32.4625 53.2446 32.8859 53.1528 33.8677C53.0643 34.8262 53.0123 35.7903 52.9072 36.7422C52.843 37.3215 52.9658 37.9981 52.4392 38.4768C52.2788 38.6227 52.4647 38.7687 52.5255 38.856C53.1185 39.6962 53.8464 40.4038 54.7658 40.8748C56.4573 41.7305 58.2672 41.8432 60.076 41.4065C61.4998 41.0616 62.7831 40.3739 63.761 39.1567C63.8396 39.7161 63.7079 40.2346 63.6172 40.7299C63.5486 41.1058 63.6239 41.1257 63.9259 41.1246C65.3264 41.118 66.7281 41.108 68.1298 41.1313C68.4849 41.1368 68.5192 41.0152 68.5535 40.6979C68.6719 39.5691 68.8411 38.4447 68.996 37.3204C69.1686 36.1042 69.3589 34.9003 69.5282 33.6875C69.6886 32.5454 69.8246 31.3989 69.9862 30.2602C70.1576 29.0496 70.349 27.8401 70.526 26.6295C70.6676 25.6533 70.8026 24.676 70.9464 23.6589C69.3766 23.6589 67.8134 23.6589 66.248 23.6522ZM63.0884 35.9019C61.6757 37.2131 59.1567 37.6144 57.6112 36.4912C56.7394 35.8566 56.371 34.9898 56.2615 33.9705C56.2487 33.7315 56.2487 33.492 56.2615 33.253C56.2615 31.2486 56.9817 29.5781 58.6478 28.4205C60.0937 27.4167 62.4888 27.19 63.9248 28.5134C64.604 29.1403 64.9503 29.9971 64.9912 30.9158C65.0698 32.8351 64.5454 34.5498 63.0884 35.9019Z" fill="#DE4C27"></path><path d="M29.4404 47.5626H28.3186L28.0409 48.1331H27.2466L28.7611 45.1934H29.6107L30.3099 48.1331H29.5576L29.4404 47.5626ZM29.3142 46.949L29.1085 45.9451L28.6173 46.949H29.3142Z" fill="#484A4B"></path><path d="M33.068 45.0577L32.6332 48.1323H31.944L31.986 47.8427C31.9037 47.9539 31.7957 48.0436 31.6713 48.1042C31.5469 48.1648 31.4097 48.1946 31.2713 48.1909C30.7923 48.1909 30.4648 47.8095 30.4648 47.2589C30.4648 46.8388 30.6242 46.4065 30.9229 46.1534C31.097 46.0007 31.3218 45.9183 31.5534 45.9223C31.6823 45.9144 31.8107 45.9439 31.9232 46.0072C32.0357 46.0706 32.1274 46.1651 32.1873 46.2794L32.3599 45.0566L33.068 45.0577ZM31.7238 46.5536C31.6581 46.5519 31.5926 46.5632 31.5313 46.5869C31.47 46.6107 31.4139 46.6463 31.3665 46.6918C31.2512 46.8215 31.1881 46.9893 31.1895 47.1627C31.1895 47.4104 31.3244 47.5619 31.5722 47.5619C31.6388 47.5636 31.7049 47.5521 31.767 47.5282C31.8291 47.5043 31.8858 47.4684 31.934 47.4226C32.0504 47.2951 32.1147 47.1286 32.1143 46.956C32.1202 46.9028 32.1142 46.8489 32.0969 46.7983C32.0795 46.7476 32.0511 46.7014 32.0138 46.663C31.9765 46.6245 31.9312 46.5948 31.8811 46.5759C31.8309 46.557 31.7772 46.5494 31.7238 46.5536Z" fill="#484A4B"></path><path d="M35.4521 45.9824L34.3679 48.1327H33.5935L33.1145 45.9824H33.8624L34.0891 47.2804L34.6865 45.9824H35.4521Z" fill="#484A4B"></path><path d="M37.7598 45.9824L37.4577 48.1328H36.7685L36.8017 47.8774C36.7224 47.9791 36.6201 48.0606 36.5032 48.1152C36.3863 48.1698 36.2581 48.1959 36.1291 48.1914C35.6246 48.1914 35.2927 47.8011 35.2927 47.2339C35.2882 47.0358 35.3252 46.8389 35.4014 46.6559C35.4776 46.4729 35.5914 46.3079 35.7352 46.1715C35.9122 46.0106 36.1432 45.9222 36.3824 45.9239C36.6856 45.9239 36.9356 46.0665 37.0296 46.302L37.0717 45.9824H37.7598ZM36.5539 46.554C36.4233 46.5511 36.2968 46.599 36.201 46.6878C36.0802 46.8216 36.0129 46.9951 36.0118 47.1754C36.0068 47.2269 36.0131 47.279 36.0305 47.3279C36.0478 47.3767 36.0756 47.4212 36.112 47.4581C36.1485 47.495 36.1925 47.5235 36.2412 47.5415C36.2898 47.5595 36.3418 47.5666 36.3935 47.5623C36.4689 47.5641 36.5438 47.5486 36.6124 47.5172C36.681 47.4858 36.7416 47.4392 36.7895 47.381C36.8838 47.2526 36.9352 47.0979 36.9367 46.9388C36.9414 46.8872 36.9348 46.8353 36.9172 46.7867C36.8997 46.738 36.8717 46.6938 36.8352 46.6571C36.7987 46.6204 36.7546 46.5922 36.706 46.5743C36.6574 46.5565 36.6055 46.5496 36.5539 46.554Z" fill="#484A4B"></path><path d="M40.1306 46.7126L39.9348 48.1322H39.229L39.4016 46.8973C39.4016 46.8508 39.4093 46.8221 39.4093 46.8011C39.4093 46.6375 39.3296 46.5612 39.1493 46.5612C38.9137 46.5612 38.7665 46.6961 38.7322 46.9481L38.5641 48.1322H37.8583L38.1614 45.9819H38.8506L38.8086 46.2715C38.8886 46.16 38.9948 46.07 39.1179 46.0092C39.241 45.9485 39.3772 45.919 39.5144 45.9233C39.9138 45.9233 40.1494 46.1543 40.1494 46.5579C40.1472 46.6099 40.1409 46.6616 40.1306 46.7126Z" fill="#484A4B"></path><path d="M41.3088 47.3105C41.3062 47.3314 41.3062 47.3526 41.3088 47.3735C41.3088 47.4907 41.3762 47.5327 41.5477 47.5327C41.6397 47.5335 41.7314 47.5235 41.821 47.5029L41.7369 48.1043C41.5875 48.1439 41.4335 48.1636 41.2789 48.1629C40.7877 48.1629 40.5686 47.9993 40.5686 47.6256C40.5706 47.5608 40.5761 47.4962 40.5852 47.4321L40.7036 46.604H40.333L40.4215 45.9827H40.791L40.8795 45.3525H41.5864L41.4979 45.9827H42.0279L41.9393 46.604H41.4094L41.3088 47.3105Z" fill="#484A4B"></path><path d="M44.4905 45.9824L44.1874 48.1328H43.4981L43.5324 47.8774C43.4531 47.9791 43.3508 48.0606 43.2339 48.1152C43.117 48.1698 42.9888 48.1959 42.8598 48.1914C42.3553 48.1914 42.0234 47.8011 42.0234 47.2339C42.0189 47.0358 42.0559 46.8389 42.1321 46.6559C42.2084 46.4729 42.3221 46.3079 42.466 46.1715C42.6429 46.0106 42.8739 45.9222 43.1131 45.9239C43.4152 45.9239 43.6663 46.0665 43.7603 46.302L43.8024 45.9824H44.4905ZM43.2846 46.554C43.1538 46.5512 43.0269 46.5992 42.9306 46.6878C42.8102 46.8219 42.743 46.9952 42.7414 47.1754C42.7366 47.227 42.7431 47.2791 42.7605 47.3279C42.778 47.3768 42.8059 47.4212 42.8424 47.4581C42.8789 47.495 42.9231 47.5235 42.9718 47.5415C43.0204 47.5595 43.0725 47.5666 43.1242 47.5623C43.1995 47.5641 43.2742 47.5486 43.3426 47.5172C43.4111 47.4858 43.4714 47.4392 43.5192 47.381C43.6138 47.2529 43.6654 47.098 43.6663 46.9388C43.6712 46.8873 43.6647 46.8354 43.6473 46.7867C43.6299 46.7381 43.602 46.6938 43.5656 46.6571C43.5292 46.6204 43.4851 46.5921 43.4366 46.5743C43.388 46.5565 43.3361 46.5496 43.2846 46.554Z" fill="#484A4B"></path><path d="M47.0881 45.9828L46.8192 47.8854C46.7186 48.6118 46.2561 49.0319 45.4662 49.0319C45.0459 49.0319 44.6675 48.9059 44.4529 48.7002L44.7936 48.1917C44.9799 48.333 45.2069 48.4106 45.4408 48.4128C45.8313 48.4128 46.0836 48.2149 46.1344 47.8788L46.1555 47.7318C46.0805 47.8453 45.978 47.9379 45.8574 48.0009C45.7369 48.064 45.6023 48.0954 45.4662 48.0922C44.9739 48.0922 44.6255 47.7229 44.6255 47.1889C44.625 46.8164 44.7717 46.4588 45.0337 46.1939C45.2181 46.0246 45.4592 45.9304 45.7096 45.9297C46.0083 45.9297 46.2628 46.0601 46.3612 46.2945L46.4033 45.9883L47.0881 45.9828ZM45.8866 46.5444C45.8173 46.543 45.7484 46.5556 45.6841 46.5817C45.6198 46.6077 45.5615 46.6466 45.5127 46.6958C45.4065 46.8064 45.3474 46.9539 45.3479 47.1071C45.343 47.1574 45.3493 47.2081 45.3665 47.2555C45.3837 47.303 45.4112 47.346 45.4472 47.3815C45.4831 47.417 45.5265 47.444 45.5742 47.4606C45.6219 47.4772 45.6727 47.483 45.7229 47.4775C45.8492 47.479 45.9721 47.4372 46.0714 47.3592C46.1336 47.3033 46.1835 47.2351 46.2182 47.159C46.2528 47.083 46.2714 47.0005 46.2727 46.917C46.2727 46.6848 46.13 46.5444 45.8866 46.5444Z" fill="#484A4B"></path><path d="M47.9001 47.2639C47.9211 47.4994 48.0594 47.6044 48.3327 47.6044C48.532 47.6109 48.7266 47.5436 48.8792 47.4153L49.2033 47.8354C49.0803 47.9554 48.934 48.049 48.7734 48.1102C48.6128 48.1714 48.4413 48.1991 48.2696 48.1914C47.6136 48.1914 47.2065 47.831 47.2065 47.255C47.2002 47.0537 47.2388 46.8535 47.3195 46.669C47.4003 46.4844 47.5211 46.3202 47.6733 46.1882C47.8993 46.0135 48.1776 45.9204 48.4632 45.9239C49.0474 45.9239 49.4169 46.2766 49.4169 46.8482C49.4149 46.9197 49.4079 46.991 49.3958 47.0616C49.3877 47.1297 49.3752 47.1973 49.3582 47.2639H47.9001ZM47.9588 46.8349H48.7332V46.7852C48.7332 46.5994 48.6402 46.5077 48.4223 46.5077C48.3538 46.5042 48.2855 46.516 48.2221 46.5422C48.1588 46.5684 48.1021 46.6083 48.0561 46.6591C48.0154 46.712 47.984 46.7715 47.9632 46.8349H47.9588Z" fill="#484A4B"></path><path d="M53.4149 45.1934L53.0033 48.1331H52.2721L52.4358 46.97H51.3008L51.137 48.1331H50.4058L50.8173 45.1934H51.5508L51.3959 46.2989H52.531L52.6858 45.1934H53.4149Z" fill="#484A4B"></path><path d="M54.1639 47.2639C54.1849 47.4994 54.3232 47.6044 54.5964 47.6044C54.7957 47.6109 54.9904 47.5436 55.143 47.4153L55.4671 47.8354C55.3447 47.955 55.1991 48.0483 55.0393 48.1095C54.8795 48.1707 54.7088 48.1986 54.5378 48.1914C53.8829 48.1914 53.4747 47.831 53.4747 47.255C53.4683 47.0537 53.507 46.8535 53.5877 46.669C53.6685 46.4844 53.7893 46.3202 53.9415 46.1882C54.1674 46.0135 54.4458 45.9204 54.7314 45.9239C55.3155 45.9239 55.685 46.2766 55.685 46.8482C55.6831 46.9197 55.676 46.991 55.664 47.0616C55.6559 47.1297 55.6433 47.1973 55.6264 47.2639H54.1639ZM54.2225 46.8349H54.9969V46.7852C54.9969 46.5994 54.904 46.5077 54.6861 46.5077C54.6176 46.5042 54.5492 46.516 54.4859 46.5422C54.4226 46.5684 54.3659 46.6083 54.3199 46.6591C54.2776 46.7117 54.2447 46.7712 54.2225 46.8349Z" fill="#484A4B"></path><path d="M58.2915 45.9824L57.9895 48.1328H57.3036L57.3367 47.8774C57.2574 47.9791 57.1551 48.0606 57.0382 48.1152C56.9213 48.1698 56.7931 48.1959 56.6641 48.1914C56.1597 48.1914 55.8278 47.8011 55.8278 47.2339C55.8232 47.0358 55.8602 46.8389 55.9365 46.6559C56.0127 46.4729 56.1264 46.3079 56.2703 46.1715C56.4472 46.0106 56.6783 45.9222 56.9175 45.9239C57.2206 45.9239 57.4706 46.0665 57.5646 46.302L57.6067 45.9824H58.2915ZM57.0823 46.554C56.9517 46.5511 56.8252 46.599 56.7294 46.6878C56.6086 46.8216 56.5413 46.9951 56.5402 47.1754C56.5352 47.2269 56.5415 47.279 56.5589 47.3279C56.5762 47.3767 56.604 47.4212 56.6404 47.4581C56.6768 47.495 56.7209 47.5235 56.7696 47.5415C56.8182 47.5595 56.8702 47.5666 56.9219 47.5623C56.9973 47.5641 57.0722 47.5486 57.1408 47.5172C57.2094 47.4858 57.27 47.4392 57.3179 47.381C57.4122 47.2526 57.4636 47.0979 57.4651 46.9388C57.4698 46.8872 57.4632 46.8353 57.4456 46.7867C57.4281 46.738 57.4001 46.6938 57.3636 46.6571C57.3271 46.6204 57.283 46.5922 57.2344 46.5743C57.1858 46.5565 57.1339 46.5496 57.0823 46.554Z" fill="#484A4B"></path><path d="M58.817 45.0586H59.5239L59.0902 48.1332H58.3844L58.817 45.0586Z" fill="#484A4B"></path><path d="M60.5118 47.3105C60.5092 47.3314 60.5092 47.3526 60.5118 47.3735C60.5118 47.4907 60.5792 47.5327 60.7518 47.5327C60.8438 47.5334 60.9355 47.5233 61.0251 47.5029L60.941 48.1043C60.7912 48.1438 60.6368 48.1635 60.4819 48.1629C59.9907 48.1629 59.7716 47.9993 59.7716 47.6256C59.7736 47.5608 59.7791 47.4962 59.7882 47.4321L59.9066 46.604H59.5371L59.6245 45.9827H59.9951L60.0825 45.3525H60.7894L60.7009 45.9827H61.2308L61.1423 46.604H60.6124L60.5118 47.3105Z" fill="#484A4B"></path><path d="M63.5044 46.7136L63.3031 48.1332H62.5962L62.7687 46.8983C62.7687 46.8518 62.7776 46.8231 62.7776 46.8021C62.7776 46.6384 62.6979 46.5622 62.5165 46.5622C62.282 46.5622 62.1348 46.697 62.1005 46.9491L61.9324 48.1332H61.2266L61.6591 45.0586H62.366L62.2012 46.2438C62.2831 46.1412 62.3877 46.059 62.5066 46.0036C62.6256 45.9482 62.7559 45.921 62.8871 45.9243C63.2776 45.9243 63.5177 46.1553 63.5177 46.5544C63.5175 46.6078 63.5131 46.661 63.5044 46.7136Z" fill="#484A4B"></path><path d="M66.4935 47.5626H65.3673L65.0896 48.1331H64.2953L65.822 45.1934H66.6716L67.3686 48.1331H66.6163L66.4935 47.5626ZM66.363 46.949L66.1539 45.9451L65.6616 46.949H66.363Z" fill="#484A4B"></path><path d="M68.6984 45.9822H69.2195L69.131 46.6036H68.6099L68.3953 48.1326H67.6917L67.9129 46.6036H67.5302L67.6187 45.9822H67.997L68.0302 45.7611C68.1021 45.2691 68.4174 45.0215 68.9805 45.0215C69.1061 45.021 69.2314 45.0336 69.3544 45.0591L69.2704 45.6561C69.1972 45.6439 69.1232 45.6369 69.0491 45.6351C68.8356 45.6351 68.7426 45.6981 68.7172 45.8451L68.6984 45.9822Z" fill="#484A4B"></path><path d="M70.8237 46.6453C70.7223 46.6288 70.6199 46.6203 70.5172 46.6198C70.1931 46.6198 70.0371 46.7636 69.9873 47.1207L69.8446 48.1323H69.141L69.4441 45.9819H70.1333L70.0869 46.3136C70.1564 46.2003 70.2541 46.1067 70.3703 46.042C70.4866 45.9774 70.6176 45.9437 70.7506 45.9443C70.8102 45.944 70.8695 45.9526 70.9266 45.9698L70.8237 46.6453Z" fill="#484A4B"></path><path d="M71.1555 45.9824H71.8625L71.5593 48.1327H70.8535L71.1555 45.9824ZM71.6523 44.9111C71.7008 44.9059 71.75 44.9111 71.7964 44.9264C71.8428 44.9416 71.8855 44.9665 71.9215 44.9994C71.9576 45.0323 71.9863 45.0725 72.0057 45.1173C72.025 45.1621 72.0347 45.2106 72.0339 45.2594C72.0359 45.3222 72.0247 45.3848 72.0012 45.443C71.9776 45.5013 71.9422 45.5541 71.8971 45.598C71.8521 45.6419 71.7984 45.6759 71.7395 45.6979C71.6806 45.7199 71.6177 45.7295 71.5549 45.7259C71.3193 45.7259 71.1688 45.5877 71.1688 45.3732C71.1678 45.3105 71.1797 45.2482 71.204 45.1902C71.2282 45.1323 71.2641 45.08 71.3095 45.0366C71.3549 44.9932 71.4088 44.9597 71.4678 44.9381C71.5267 44.9165 71.5896 44.9073 71.6523 44.9111Z" fill="#484A4B"></path><path d="M72.4122 46.2252C72.6461 46.0222 72.9478 45.9144 73.2574 45.9234C73.69 45.9234 74.044 46.1124 74.1945 46.4319L73.6413 46.7968C73.6003 46.7248 73.5409 46.6651 73.4691 46.6238C73.3974 46.5824 73.3159 46.5608 73.2331 46.5613C73.1655 46.5603 73.0984 46.5728 73.0357 46.598C72.973 46.6233 72.916 46.6608 72.868 46.7083C72.7648 46.8354 72.7096 46.9947 72.712 47.1583C72.712 47.4059 72.8514 47.553 73.0904 47.553C73.1804 47.552 73.269 47.5302 73.3492 47.4894C73.4294 47.4485 73.4991 47.3897 73.5528 47.3175L74.0318 47.6834C73.9176 47.8475 73.7636 47.9801 73.5843 48.0688C73.405 48.1575 73.2062 48.1995 73.0063 48.1909C72.389 48.1909 71.9941 47.7962 71.9941 47.2125C71.9928 47.0281 72.0292 46.8454 72.1011 46.6757C72.173 46.5059 72.2789 46.3526 72.4122 46.2252Z" fill="#484A4B"></path><path d="M76.6416 45.9824L76.3385 48.1328H75.6493L75.6836 47.8774C75.6042 47.9791 75.5019 48.0606 75.385 48.1152C75.2681 48.1698 75.1399 48.1959 75.0109 48.1914C74.5065 48.1914 74.1746 47.8011 74.1746 47.2339C74.17 47.0358 74.207 46.8389 74.2833 46.6559C74.3595 46.4729 74.4732 46.3079 74.6171 46.1715C74.794 46.0106 75.0251 45.9222 75.2643 45.9239C75.5663 45.9239 75.8174 46.0665 75.9115 46.302L75.9535 45.9824H76.6416ZM75.4357 46.554C75.3049 46.5512 75.178 46.5992 75.0817 46.6878C74.9614 46.8219 74.8941 46.9952 74.8926 47.1754C74.8877 47.227 74.8942 47.2791 74.9117 47.3279C74.9291 47.3768 74.9571 47.4212 74.9936 47.4581C75.0301 47.495 75.0742 47.5235 75.1229 47.5415C75.1716 47.5595 75.2236 47.5666 75.2753 47.5623C75.3506 47.5641 75.4253 47.5486 75.4938 47.5172C75.5622 47.4858 75.6226 47.4392 75.6703 47.381C75.765 47.2529 75.8165 47.098 75.8174 46.9388C75.8223 46.8873 75.8158 46.8354 75.7984 46.7867C75.781 46.7381 75.7531 46.6938 75.7167 46.6571C75.6803 46.6204 75.6363 46.5921 75.5877 46.5743C75.5392 46.5565 75.4873 46.5496 75.4357 46.554Z" fill="#484A4B"></path></svg>