<svg xmlns="http://www.w3.org/2000/svg" viewBox="0 0 308.21 277.07" xmlns:v="https://vecta.io/nano"><path d="M30.28 236.89V242h-4.24c-7.93 0-13.87-1.6-17.79-4.81-5.11-4.17-7.67-11.32-7.67-21.45 0-10.11 2.55-17.25 7.67-21.42 3.92-3.21 9.85-4.81 17.79-4.81h4.24v5.11h-4.24c-6.75 0-11.61 1.21-14.59 3.63-3.45 2.82-5.35 7.81-5.68 14.96h21.96v5.08H5.77c.34 7.15 2.23 12.14 5.68 14.96 2.98 2.42 7.85 3.63 14.59 3.63h4.24zm22.08-29.99h5.75l13.51 30.6c.11.2.24.2.37 0l13.62-30.6h5.72l-14.56 32.72c-.45.99-1.11 1.77-1.99 2.36-.89.58-1.88.87-2.96.87-1.1 0-2.09-.29-2.96-.87a5.34 5.34 0 0 1-2.05-2.36l-13.85-31.34-.6-1.38zm88.08 34.03c-2.58 1.3-5.29 1.95-8.14 1.95-5.09 0-9.41-1.8-12.98-5.41-3.61-3.59-5.41-7.91-5.41-12.98 0-5.09 1.81-9.42 5.41-13.01 3.57-3.59 7.89-5.38 12.98-5.38 2.76 0 5.39.61 7.9 1.82 2.53 1.21 4.66 2.9 6.39 5.08a2.49 2.49 0 0 1 .6 1.91 2.67 2.67 0 0 1-.97 1.78l-21.01 18.83c2.13 1.37 4.49 2.05 7.09 2.05a13.52 13.52 0 0 0 5.85-1.31c1.82-.92 3.35-2.2 4.61-3.87l4.17 3.2a18.36 18.36 0 0 1-6.49 5.34zm-19.03-9.08l19.4-17.35c-.87-.74-1.83-1.36-2.86-1.85-1.77-.88-3.65-1.31-5.65-1.31-3.63 0-6.72 1.29-9.28 3.87-2.58 2.56-3.87 5.65-3.87 9.28.01 2.69.76 5.14 2.26 7.36zm52.17-24.95h5.24v2.32l1.61-1.01c2.6-1.44 5.38-2.15 8.34-2.15 4.93 0 9.13 1.81 12.61 5.41 3.45 3.61 5.18 7.94 5.18 12.98V242h-5.25v-17.55c0-3.66-1.23-6.76-3.7-9.32-2.44-2.53-5.39-3.8-8.84-3.8-2.06 0-4.01.5-5.85 1.51-1.59.87-2.96 2.08-4.1 3.63v25.52h-5.24V206.9zm59.6 5.15v-5.15h5.38v-17.38h5.25v17.38h10.66v5.11h-10.66v14.06c0 3.83.32 6.41.97 7.73 1.1 2.11 3.44 3.16 7.03 3.16h2.66v5.28h-2.66c-5.96 0-9.83-1.57-11.6-4.71-1.1-1.95-1.65-5.77-1.65-11.46v-14.02h-5.38zm72.45-5.18v5.28h-15.17c-1.93 0-3.54.32-4.84.97-1.7.83-2.56 2.12-2.56 3.87 0 1.5 1.07 2.65 3.19 3.43 1.28.47 3.63.94 7.06 1.41 4.93.72 8.32 1.54 10.15 2.45 3.09 1.55 4.64 4.09 4.64 7.63 0 3.38-1.46 5.99-4.37 7.8-2.44 1.53-5.47 2.29-9.08 2.29H278.5v-5.28h16.18c2.08 0 3.83-.29 5.24-.87 1.95-.83 2.92-2.14 2.92-3.93 0-1.52-1.06-2.67-3.19-3.43-1.28-.47-3.63-.95-7.06-1.44-4.93-.69-8.32-1.5-10.16-2.42-3.09-1.55-4.64-4.09-4.64-7.63 0-3.29 1.34-5.86 4-7.7 2.35-1.61 5.24-2.42 8.67-2.42h15.17zM158.53 55.39l-7.85 7.85 8.43 8.44L146.4 84.4c-5.85 5.86-12.93 8.78-21.23 8.78-8.25 0-15.3-2.92-21.16-8.78-5.85-5.85-8.78-12.91-8.78-21.16 0-8.3 2.92-15.37 8.79-21.23 5.8-5.81 12.76-8.62 20.88-8.43 8.02.14 14.98 3.15 20.88 9.06l12.75 12.75zm-7.84 7.85l-12.76-12.76c-3.52-3.53-7.78-5.29-12.76-5.29s-9.22 1.75-12.72 5.26c-4.17 4.17-6.14 8.82-5.91 13.93.19 4.56 2.01 8.57 5.46 12.03 3.46 3.46 7.48 5.27 12.07 5.43 5.12.23 9.75-1.73 13.9-5.88l12.72-12.72z" fill="#026735"/><path d="M166.25 63.3l-7.85-7.85-8.43 8.43-12.72-12.72c-5.85-5.86-8.78-12.93-8.78-21.23 0-8.25 2.93-15.3 8.78-21.16C143.1 2.93 150.15 0 158.4 0c8.3 0 15.38 2.93 21.23 8.78 5.8 5.8 8.62 12.77 8.43 20.88-.14 8.02-3.16 14.98-9.06 20.88L166.25 63.3zm-7.85-7.85l12.76-12.76c3.52-3.53 5.29-7.77 5.29-12.75s-1.75-9.22-5.25-12.73c-4.17-4.17-8.82-6.14-13.94-5.91-4.57.19-8.57 2-12.03 5.46s-5.27 7.48-5.43 12.07c-.24 5.11 1.73 9.75 5.88 13.9l12.72 12.72z" fill="#93c13e"/><path d="M158.5 71.8l7.85-7.85-8.44-8.43 12.72-12.73c5.85-5.85 12.93-8.78 21.22-8.78 8.26 0 15.31 2.93 21.17 8.78 5.85 5.85 8.78 12.91 8.78 21.16 0 8.29-2.93 15.37-8.78 21.23-5.81 5.81-12.77 8.62-20.89 8.43-8.02-.14-14.98-3.16-20.88-9.06L158.5 71.8zm7.85-7.85l12.76 12.76c3.52 3.53 7.78 5.28 12.76 5.28 4.98.01 9.21-1.75 12.72-5.25 4.17-4.17 6.14-8.82 5.91-13.94-.18-4.56-2-8.57-5.46-12.03s-7.49-5.27-12.07-5.43c-5.12-.23-9.75 1.73-13.9 5.87l-12.72 12.74z" fill="#026735"/><path d="M13.17 158.18v20.3H0v-52.42c0-9.14 3.24-16.95 9.71-23.43 6.44-6.44 14.23-9.66 23.37-9.66s16.93 3.22 23.38 9.66c6.48 6.48 9.72 14.29 9.72 23.43 0 9.07-3.24 16.7-9.72 22.89-6.37 6.16-14.16 9.24-23.38 9.24H13.17zm0-12.26h19.91c5.51 0 10.21-1.94 14.09-5.82 3.89-3.89 5.83-8.57 5.83-14.04 0-6.51-2.09-11.68-6.26-15.49-3.71-3.42-8.26-5.13-13.66-5.13s-9.95 1.73-13.66 5.18c-4.18 3.81-6.26 8.96-6.26 15.44v19.86zm97.06-8.75c-3.12-3.24-6.91-4.85-11.33-4.85-2.7 0-5.22.65-7.56 1.94-1.84 1.01-3.44 2.35-4.8 4.04v35.43l-13.17 4.74v-58.09h13.17v6.48c5.14-5.15 10.87-7.72 17.17-7.72 6.05.04 11.34 2.32 15.87 6.86l-9.35 11.17zm53.13-16.79h13.22v53.39l-13.22 4.7v-4.27c-4.79 3.63-10.08 5.45-15.88 5.45-7.38 0-13.71-2.68-19-8.04-5.65-5.76-8.47-13.16-8.47-22.19 0-9 2.81-16.38 8.42-22.14 5.29-5.4 11.63-8.1 19-8.1 5.79 0 11.1 1.82 15.93 5.45v-4.25zm0 17.07c-3.21-3.82-7.27-5.74-12.2-5.78-4.68-.03-8.8 1.57-12.37 4.81-3.74 3.46-5.61 7.77-5.61 12.96 0 5.14 1.87 9.44 5.61 12.9 3.53 3.27 7.63 4.9 12.31 4.86 4.93 0 9.02-1.93 12.26-5.78v-23.97zm37.19-10.59c4.1-4.1 8.64-6.57 13.61-7.4 4.75-.79 9.29-.05 13.6 2.21 4.35 2.27 7.83 5.74 10.42 10.42 2.77 5 4.16 10.78 4.16 17.34v29.04H229.1v-29.04c0-4.79-1.6-8.86-4.8-12.2-3.16-3.28-6.96-4.91-11.39-4.91-2.7 0-5.21.65-7.55 1.94-1.84 1.01-3.44 2.35-4.81 4.04v40.17h-13.17v-58.09h13.17v6.48zm94.31-6.48h13.23l.12 53.47-13.35 4.62v-4.27c-4.78 3.63-10.07 5.45-15.87 5.45-7.38 0-13.71-2.68-19-8.04-5.65-5.76-8.47-13.16-8.47-22.19 0-9 2.81-16.38 8.42-22.14 5.29-5.4 11.63-8.1 19-8.1 5.8 0 11.11 1.82 15.92 5.45v-4.25zm0 17.07c-3.2-3.82-7.27-5.74-12.19-5.78-4.68-.03-8.8 1.57-12.37 4.81-3.74 3.46-5.61 7.77-5.61 12.96 0 5.14 1.87 9.44 5.61 12.9 3.53 3.27 7.63 4.9 12.31 4.86 4.94 0 9.01-1.93 12.25-5.78v-23.97z" fill="#93c13e"/><path d="M1.76 273.33v-14.02h8.09v1.2H3.14v4.87h5.99v1.17H3.14v5.58h7.24v1.19H1.76zm14.6-4.43l-.89 1.11-.86 1.15-.75 1.14-.58 1.02h-1.36a27.33 27.33 0 0 1 1.79-2.86l1.94-2.57-3.53-5.03h1.54l2.73 3.96 2.73-3.96h1.44l-3.46 4.98.94 1.2 1 1.35.97 1.44.87 1.49h-1.41c-.16-.3-.36-.63-.59-.98l-.76-1.12-.88-1.18-.88-1.14zm6.83 4.43v-15.46l1.31-.24v5.54c.43-.16.87-.29 1.32-.38s.89-.13 1.33-.13c.81 0 1.48.11 2.03.34.54.23.97.56 1.29.98.32.43.55.94.68 1.53.12.59.19 1.25.19 1.96v5.85h-1.32v-5.42c0-.74-.05-1.37-.15-1.88-.1-.52-.27-.93-.51-1.26a2 2 0 0 0-.94-.7c-.39-.14-.88-.21-1.48-.21a4.91 4.91 0 0 0-.74.06l-.74.13-.61.15-.36.12v9h-1.3zm13.13-13.62c0 .31-.1.56-.29.74s-.42.27-.69.27-.5-.09-.69-.27-.28-.43-.28-.74.09-.55.28-.74c.19-.18.42-.27.69-.27s.5.09.69.27c.19.19.29.43.29.74zm-.3 13.62H34.7v-10.46h1.32v10.46zm4.79-9.84c.23-.17.6-.36 1.1-.56.51-.2 1.1-.29 1.79-.29.75 0 1.43.13 2.01.4a4.27 4.27 0 0 1 1.49 1.14c.4.48.71 1.06.92 1.73s.31 1.4.31 2.2c0 .85-.12 1.61-.37 2.29-.25.67-.6 1.25-1.05 1.72s-.99.84-1.62 1.08c-.63.25-1.32.37-2.09.37-.93 0-1.7-.06-2.31-.18s-1.1-.25-1.5-.38v-15.13l1.31-.24v5.85zm0 8.6c.2.07.5.13.9.19s.92.09 1.57.09c1.13 0 2.04-.37 2.73-1.1s1.03-1.79 1.03-3.16a7.32 7.32 0 0 0-.18-1.65 3.77 3.77 0 0 0-.59-1.35c-.27-.38-.62-.69-1.06-.92s-.98-.35-1.63-.35c-.31 0-.6.03-.89.09-.28.06-.55.14-.79.23l-.64.3-.46.3v7.33zm12.1-12.38c0 .31-.09.56-.28.74s-.42.27-.69.27-.5-.09-.69-.27-.28-.43-.28-.74.1-.55.28-.74c.19-.18.42-.27.69-.27s.5.09.69.27c.18.19.28.43.28.74zm-.31 13.62h-1.31v-10.46h1.31v10.46zm4.72-10.46h4.17v1.11h-4.17v5.56c0 .59.05 1.07.15 1.45.1.37.25.66.43.86.19.2.42.34.69.4.27.07.57.1.89.1.55 0 1-.06 1.34-.19s.6-.25.79-.36l.32 1.1c-.19.12-.52.26-.99.41-.47.16-.99.23-1.54.23-.65 0-1.19-.08-1.63-.25s-.79-.42-1.05-.77c-.26-.34-.45-.77-.56-1.29-.11-.51-.16-1.12-.16-1.82v-9.63l1.31-.24v3.33zm8.21-3.16c0 .31-.09.56-.28.74s-.42.27-.69.27-.5-.09-.69-.27-.29-.43-.29-.74.1-.55.29-.74c.19-.18.42-.27.69-.27s.5.09.69.27c.19.19.28.43.28.74zm-.3 13.62h-1.31v-10.46h1.31v10.46zm12.4-5.22c0 .82-.12 1.57-.35 2.25s-.57 1.25-.99 1.72c-.43.47-.93.84-1.51 1.1a4.64 4.64 0 0 1-1.92.39 4.64 4.64 0 0 1-1.92-.39c-.58-.26-1.08-.63-1.51-1.1s-.75-1.04-.99-1.72c-.24-.67-.35-1.42-.35-2.25 0-.82.12-1.57.35-2.25.24-.67.57-1.25.99-1.73s.93-.85 1.51-1.11a4.64 4.64 0 0 1 1.92-.39 4.64 4.64 0 0 1 1.92.39c.58.27 1.08.63 1.51 1.11.42.48.76 1.06.99 1.73.23.68.35 1.43.35 2.25zm-1.4 0c0-1.31-.3-2.35-.91-3.13s-1.43-1.16-2.47-1.16-1.86.39-2.47 1.16-.91 1.82-.91 3.13.3 2.35.91 3.12 1.43 1.15 2.47 1.15 1.86-.38 2.47-1.15c.61-.78.91-1.82.91-3.12zm4.25-4.88c.39-.11.92-.23 1.58-.36s1.47-.2 2.43-.2c.8 0 1.46.11 1.99.34a3.16 3.16 0 0 1 1.28.98c.31.43.54.94.68 1.53s.2 1.25.2 1.96v5.85h-1.31v-5.42c0-.74-.05-1.37-.15-1.88-.1-.52-.27-.93-.51-1.26-.23-.32-.54-.56-.93-.7-.38-.14-.87-.21-1.45-.21-.62 0-1.16.04-1.61.1-.46.07-.75.13-.88.18v9.19h-1.32v-10.1zm16.41-5.74h1.25v19.58h-1.25v-19.58zm15.54 16.14c-.9 0-1.74-.16-2.52-.49a5.68 5.68 0 0 1-2.02-1.41c-.57-.62-1.03-1.39-1.36-2.3s-.49-1.95-.49-3.13c0-1.17.18-2.22.54-3.12.36-.91.84-1.68 1.43-2.3a5.92 5.92 0 0 1 2.06-1.41 6.59 6.59 0 0 1 2.45-.47c.53 0 1 .03 1.44.1a8.39 8.39 0 0 1 1.13.25l.83.3c.23.1.41.19.53.27l-.45 1.19c-.34-.2-.76-.4-1.28-.6s-1.16-.29-1.93-.29c-.88 0-1.65.15-2.3.44a4.66 4.66 0 0 0-1.65 1.26c-.45.54-.78 1.18-1 1.92s-.33 1.57-.33 2.47c0 .93.11 1.77.33 2.52s.55 1.39.98 1.91c.43.53.96.93 1.59 1.22.63.28 1.35.42 2.15.42.89 0 1.64-.09 2.23-.26.6-.17 1.06-.34 1.37-.51l.38 1.17c-.09.07-.26.15-.48.23-.23.09-.52.18-.87.27a10.48 10.48 0 0 1-1.21.23c-.48.09-.99.12-1.55.12zm15.33-5.52c0 .82-.12 1.57-.35 2.25s-.57 1.25-.99 1.72c-.43.47-.93.84-1.51 1.1a4.64 4.64 0 0 1-1.92.39 4.64 4.64 0 0 1-1.92-.39c-.58-.26-1.08-.63-1.51-1.1s-.75-1.04-.99-1.72c-.24-.67-.35-1.42-.35-2.25 0-.82.12-1.57.35-2.25.24-.67.57-1.25.99-1.73s.93-.85 1.51-1.11a4.64 4.64 0 0 1 1.92-.39 4.64 4.64 0 0 1 1.92.39c.58.27 1.08.63 1.51 1.11s.76 1.06.99 1.73c.23.68.35 1.43.35 2.25zm-1.39 0c0-1.31-.3-2.35-.91-3.13s-1.43-1.16-2.47-1.16-1.86.39-2.47 1.16-.91 1.82-.91 3.13.3 2.35.91 3.12 1.43 1.15 2.47 1.15 1.86-.38 2.47-1.15c.6-.78.91-1.82.91-3.12zm4.24-4.88c.39-.11.92-.23 1.58-.36s1.47-.2 2.43-.2c.8 0 1.46.11 1.99.34s.96.56 1.27.98c.32.43.54.94.68 1.53.13.59.2 1.25.2 1.96v5.85h-1.32v-5.42c0-.74-.05-1.37-.15-1.88-.1-.52-.27-.93-.51-1.26-.24-.32-.55-.56-.93-.7-.39-.14-.87-.21-1.45-.21-.62 0-1.16.04-1.61.1l-.88.18v9.19h-1.31v-10.1zm15.36-5.6c.57 0 1.03.04 1.39.13.35.09.59.16.7.23l-.26 1.13c-.15-.07-.37-.14-.66-.21s-.66-.11-1.1-.11c-.93 0-1.59.24-1.99.71s-.6 1.23-.6 2.27v1.09h4.21v1.11h-4.21v9.35h-1.32v-11.59c0-1.36.31-2.39.94-3.08.62-.69 1.59-1.03 2.9-1.03zm3.13 10.46c0-.92.13-1.72.39-2.4a5.34 5.34 0 0 1 1.03-1.71c.43-.46.91-.8 1.46-1.02a4.46 4.46 0 0 1 1.69-.33c1.28 0 2.3.42 3.06 1.26.76.83 1.14 2.12 1.14 3.86l-.01.32-.03.3h-7.34c.04 1.28.36 2.27.95 2.95.59.69 1.54 1.03 2.83 1.03.71 0 1.28-.07 1.7-.2s.72-.25.91-.35l.24 1.14c-.19.11-.54.24-1.06.38-.52.15-1.13.22-1.83.22-.92 0-1.7-.13-2.35-.4s-1.18-.65-1.6-1.13-.72-1.06-.91-1.73c-.17-.67-.27-1.4-.27-2.19zm7.43-.83c-.03-1.09-.28-1.94-.77-2.55s-1.17-.91-2.06-.91c-.47 0-.89.1-1.27.28-.37.19-.7.44-.97.76-.28.32-.49.68-.65 1.1s-.25.86-.27 1.32h5.99zm7.85-4.59c.43 0 .84.03 1.23.1.38.07.65.13.8.2l-.26 1.13c-.11-.06-.33-.11-.66-.17s-.77-.09-1.3-.09c-.57 0-1.02.04-1.37.12-.34.08-.57.15-.68.2v9.17h-1.31v-9.98c.34-.15.8-.3 1.4-.45.58-.16 1.3-.23 2.15-.23zm3.38 5.42c0-.92.13-1.72.39-2.4a5.34 5.34 0 0 1 1.03-1.71 3.95 3.95 0 0 1 1.46-1.02 4.46 4.46 0 0 1 1.69-.33c1.28 0 2.3.42 3.06 1.26.76.83 1.14 2.12 1.14 3.86l-.01.32-.03.3h-7.34c.04 1.28.36 2.27.95 2.95.59.69 1.54 1.03 2.83 1.03.71 0 1.28-.07 1.7-.2.41-.13.72-.25.91-.35l.25 1.14c-.19.11-.54.24-1.06.38-.52.15-1.13.22-1.83.22-.92 0-1.7-.13-2.35-.4s-1.18-.65-1.6-1.13-.72-1.06-.91-1.73-.28-1.4-.28-2.19zm7.42-.83c-.03-1.09-.28-1.94-.77-2.55-.48-.61-1.17-.91-2.06-.91-.47 0-.89.1-1.26.28-.37.19-.7.44-.97.76-.28.32-.49.68-.65 1.1-.15.42-.25.86-.27 1.32h5.98zm4.29-4.03c.39-.11.92-.23 1.58-.36s1.47-.2 2.43-.2c.8 0 1.46.11 2 .34.53.23.96.56 1.27.98.32.43.54.94.68 1.53.13.59.2 1.25.2 1.96v5.85h-1.32v-5.42c0-.74-.05-1.37-.15-1.88-.1-.52-.27-.93-.51-1.26-.24-.32-.55-.56-.93-.7s-.87-.21-1.45-.21c-.62 0-1.16.04-1.61.1l-.88.18v9.19h-1.32v-10.1zm15.84 10.32c-.81 0-1.52-.13-2.14-.38-.62-.26-1.14-.62-1.55-1.1a4.85 4.85 0 0 1-.94-1.72c-.22-.67-.32-1.41-.32-2.21 0-.82.11-1.57.33-2.25a5.05 5.05 0 0 1 .96-1.74c.42-.49.92-.86 1.52-1.12.59-.26 1.26-.39 2.01-.39a8.96 8.96 0 0 1 1.59.14c.49.1.87.22 1.14.36l-.35 1.13c-.27-.13-.57-.24-.91-.32-.33-.08-.79-.12-1.35-.12-1.16 0-2.04.37-2.64 1.12s-.9 1.81-.9 3.19c0 .62.06 1.19.2 1.71.13.52.35.97.66 1.34.3.37.7.66 1.17.87.48.21 1.06.31 1.75.31.57 0 1.05-.06 1.43-.19l.84-.33.28 1.13c-.24.13-.62.26-1.14.39a7.36 7.36 0 0 1-1.64.18zm4.35-5.46c0-.92.13-1.72.39-2.4a5.34 5.34 0 0 1 1.03-1.71 3.95 3.95 0 0 1 1.46-1.02 4.5 4.5 0 0 1 1.69-.33c1.28 0 2.3.42 3.06 1.26.76.83 1.14 2.12 1.14 3.86l-.01.32-.03.3h-7.34c.04 1.28.36 2.27.95 2.95.59.69 1.54 1.03 2.83 1.03.71 0 1.28-.07 1.7-.2s.72-.25.91-.35l.24 1.14c-.19.11-.54.24-1.06.38-.52.15-1.13.22-1.83.22-.92 0-1.7-.13-2.35-.4s-1.18-.65-1.6-1.13-.72-1.06-.91-1.73c-.18-.67-.27-1.4-.27-2.19zm7.43-.83c-.03-1.09-.28-1.94-.77-2.55s-1.17-.91-2.07-.91c-.47 0-.89.1-1.26.28-.37.19-.7.44-.97.76-.28.32-.49.68-.65 1.1s-.25.86-.27 1.32h5.99zm9.18-9.77h1.26v19.58h-1.26v-19.58zm16.02 13.82l-.58-1.34-.84-1.81-.95-2.03-.94-1.95-.79-1.6-.51-.97-.42 5.49-.27 6.22h-1.36l.41-7.32.58-6.7h1.21l1.3 2.34 1.37 2.75 1.32 2.81 1.12 2.5 1.12-2.5 1.32-2.81 1.37-2.75 1.3-2.34h1.15l.58 6.7.41 7.32h-1.39l-.27-6.22-.42-5.49-.51.97-.79 1.6-.93 1.95-.95 2.03-.84 1.81-.57 1.34h-1.23zm10.48-3.22c0-.92.13-1.72.39-2.4a5.34 5.34 0 0 1 1.03-1.71 3.95 3.95 0 0 1 1.46-1.02 4.5 4.5 0 0 1 1.69-.33c1.28 0 2.3.42 3.06 1.26.76.83 1.14 2.12 1.14 3.86l-.01.32c0 .11-.02.21-.03.3h-7.34c.04 1.28.36 2.27.95 2.95.59.69 1.54 1.03 2.84 1.03.71 0 1.28-.07 1.7-.2s.72-.25.91-.35l.24 1.14c-.19.11-.54.24-1.06.38-.52.15-1.13.22-1.83.22-.92 0-1.7-.13-2.35-.4-.64-.27-1.18-.65-1.6-1.13s-.72-1.06-.91-1.73c-.18-.67-.28-1.4-.28-2.19zm7.43-.83c-.03-1.09-.29-1.94-.77-2.55-.49-.61-1.17-.91-2.07-.91-.47 0-.89.1-1.26.28-.37.19-.69.44-.97.76s-.49.68-.65 1.1-.25.86-.27 1.32h5.99zm3.66.83c0-.92.13-1.72.39-2.4a5.34 5.34 0 0 1 1.03-1.71 3.95 3.95 0 0 1 1.46-1.02 4.5 4.5 0 0 1 1.69-.33c1.28 0 2.3.42 3.06 1.26.76.83 1.14 2.12 1.14 3.86l-.01.32c0 .11-.02.21-.03.3h-7.34c.04 1.28.36 2.27.95 2.95.59.69 1.54 1.03 2.84 1.03.71 0 1.28-.07 1.7-.2s.72-.25.91-.35l.24 1.14c-.19.11-.54.24-1.06.38-.52.15-1.13.22-1.83.22-.92 0-1.7-.13-2.35-.4-.64-.27-1.18-.65-1.6-1.13s-.72-1.06-.91-1.73-.28-1.4-.28-2.19zm7.42-.83c-.03-1.09-.28-1.94-.77-2.55s-1.17-.91-2.06-.91c-.47 0-.89.1-1.26.28-.37.19-.7.44-.97.76-.28.32-.49.68-.65 1.1s-.25.86-.27 1.32h5.98zm5.52-4.39h4.17v1.11h-4.17v5.56c0 .59.05 1.07.15 1.45.1.37.25.66.43.86.19.2.42.34.69.4.27.07.57.1.89.1.55 0 1-.06 1.34-.19s.6-.25.79-.36l.32 1.1c-.19.12-.52.26-.99.41-.47.16-.99.23-1.54.23-.65 0-1.19-.08-1.63-.25s-.79-.42-1.05-.77c-.26-.34-.45-.77-.56-1.29-.11-.51-.16-1.12-.16-1.82v-9.63l1.32-.24v3.33zm8.22-3.16c0 .31-.09.56-.28.74s-.42.27-.69.27-.5-.09-.69-.27-.28-.43-.28-.74.09-.55.28-.74c.19-.18.42-.27.69-.27s.5.09.69.27c.19.19.28.43.28.74zm-.3 13.62h-1.32v-10.46h1.32v10.46zm3.48-10.1c.39-.11.92-.23 1.58-.36s1.47-.2 2.43-.2c.8 0 1.46.11 1.99.34a3.16 3.16 0 0 1 1.28.98c.32.43.54.94.68 1.53.13.59.2 1.25.2 1.96v5.85h-1.32v-5.42c0-.74-.05-1.37-.15-1.88-.1-.52-.27-.93-.51-1.26-.24-.32-.55-.56-.93-.7-.39-.14-.87-.21-1.45-.21-.62 0-1.16.04-1.61.1l-.88.18v9.19h-1.32v-10.1zm18.33 8.88c-.08.07-.2.15-.36.23a4.37 4.37 0 0 1-.6.27 4.31 4.31 0 0 1-.81.23c-.3.06-.65.09-1.02.09-.6 0-1.19-.1-1.76-.28a3.79 3.79 0 0 1-1.48-.89c-.43-.4-.77-.93-1.02-1.57s-.38-1.42-.38-2.34c0-.74.12-1.43.34-2.06.23-.63.56-1.18.98-1.65s.94-.83 1.56-1.09 1.3-.39 2.07-.39c.97 0 1.75.06 2.34.19l1.45.38v9.55c0 1.57-.41 2.68-1.21 3.35-.81.67-2.03 1-3.66 1-.67 0-1.28-.05-1.83-.15s-1.02-.22-1.41-.36l.26-1.19c.32.15.77.28 1.32.39.56.11 1.12.16 1.69.16 1.24 0 2.14-.24 2.7-.72s.84-1.3.84-2.46v-.69zm-.02-7.97c-.23-.07-.53-.13-.89-.19s-.88-.09-1.56-.09c-.57 0-1.07.1-1.51.3-.44.19-.81.47-1.12.83s-.54.78-.71 1.28c-.16.49-.24 1.03-.24 1.63 0 .69.09 1.28.28 1.77s.44.89.74 1.2.65.54 1.04.68.79.21 1.19.21c.59 0 1.14-.09 1.63-.26.49-.18.87-.38 1.14-.61v-6.75zm6.93 8.26c.76 0 1.38-.13 1.87-.38s.74-.67.74-1.26c0-.28-.04-.53-.13-.73s-.23-.39-.44-.55c-.2-.16-.47-.32-.8-.47l-1.23-.53-1.11-.5c-.35-.17-.66-.36-.93-.58a2.66 2.66 0 0 1-.65-.8c-.16-.31-.24-.69-.24-1.13 0-.85.32-1.54.96-2.06.64-.53 1.52-.79 2.64-.79.71 0 1.3.06 1.77.18.46.12.79.23.98.32l-.3 1.17c-.16-.08-.43-.19-.82-.32-.38-.14-.95-.2-1.69-.2a3.73 3.73 0 0 0-.84.09 2.44 2.44 0 0 0-.7.28c-.2.13-.36.29-.48.49-.12.19-.18.44-.18.72s.05.53.16.73c.11.21.26.38.48.54a3.91 3.91 0 0 0 .77.44l1.04.44 1.16.49c.37.17.7.37.98.6a3 3 0 0 1 .69.85c.18.33.26.74.26 1.24 0 .94-.35 1.66-1.06 2.15-.71.48-1.68.73-2.9.73-.92 0-1.62-.08-2.1-.23l-.97-.36.34-1.19c.04.03.13.07.26.13a4.54 4.54 0 0 0 .55.2 5.91 5.91 0 0 0 .82.19c.32.07.69.1 1.1.1z" fill="#1d1d1b"/></svg>